<svg xmlns="http://www.w3.org/2000/svg" xmlns:xlink="http://www.w3.org/1999/xlink" width="998.781" height="1006.376" viewBox="0 0 998.781 1006.376">
  <defs>
    <clipPath id="clip-path">
      <rect y="68" width="998.781" height="1006.376" fill="none"/>
    </clipPath>
  </defs>
  <g id="Grupo_de_desplazamiento_1" data-name="Grupo de desplazamiento 1" transform="translate(0 -68)" clip-path="url(#clip-path)" style="isolation: isolate">
    <path id="Trazado_3" data-name="Trazado 3" d="M1464.125,4.991C849.1,427.811,898.332,812.649,961.09,926.559c56.168,101.949-2.893,191.913,252.589,237.379,30.163,5.368,49.46,7.584,85.8,9.612,80.063,1.585,279.509,26.4,341.615,14.736,191.572-1.918,288.1-98.529,292.216-111.822,1.689-5.456-.443-95.726,0-217.907.962-265.376,2.46-681.244,0-690.516-3.586-13.515,0-163.05,0-163.05H1464.125Z" transform="translate(-925.245 -4.491)" fill="#7b00f5" stroke="#707070" stroke-width="1"/>
  </g>
</svg>
